<?xml version="1.0" standalone="no"?>
<!DOCTYPE svg PUBLIC "-//W3C//DTD SVG 20010904//EN"
 "http://www.w3.org/TR/2001/REC-SVG-20010904/DTD/svg10.dtd">
<svg version="1.0" xmlns="http://www.w3.org/2000/svg"
 width="840.000000pt" height="859.000000pt" viewBox="0 0 840.000000 859.000000"
 preserveAspectRatio="xMidYMid meet">
<metadata>
Created by potrace 1.16, written by Peter Selinger 2001-2019
</metadata>
<g transform="translate(0.000000,859.000000) scale(0.100000,-0.100000)"
fill="#000000" stroke="none">
<path d="M4687 8556 c-9 -10 -17 -20 -17 -24 0 -14 -62 -314 -104 -507 -25
-110 -50 -235 -58 -277 l-13 -77 -150 49 c-82 28 -151 50 -152 50 -2 0 -3 -34
-3 -75 l0 -74 38 -10 c20 -6 56 -13 78 -17 70 -11 70 -16 1 -83 -69 -66 -121
-150 -133 -216 -4 -22 -28 -101 -55 -176 -36 -103 -99 -359 -99 -402 0 -3 -29
-2 -64 0 -96 8 -156 -16 -232 -91 -44 -45 -67 -77 -83 -121 -64 -168 -46 -354
46 -488 28 -40 97 -87 128 -87 19 0 20 8 -10 -157 -8 -46 -17 -120 -21 -165
-4 -49 -21 -128 -41 -193 -46 -149 -62 -227 -73 -370 -6 -67 -20 -152 -31
-191 -56 -189 -61 -221 -64 -428 l-2 -200 -64 -39 c-35 -22 -106 -59 -156 -83
-71 -34 -94 -50 -99 -68 -4 -19 -32 -38 -127 -86 -227 -115 -368 -227 -383
-305 -17 -92 66 -252 255 -490 39 -49 76 -106 81 -126 6 -20 17 -42 25 -49 8
-7 15 -29 15 -49 1 -136 95 -217 193 -167 19 11 27 12 27 3 0 -7 5 -29 11 -50
8 -30 21 -45 58 -69 l48 -29 -67 -102 c-120 -183 -316 -519 -404 -694 -29 -59
-33 -74 -21 -80 11 -7 1 -30 -51 -118 -35 -60 -64 -115 -64 -122 0 -41 214
-574 319 -797 34 -71 60 -134 58 -140 -2 -6 2 -24 10 -40 l15 -29 -115 -116
c-124 -126 -209 -223 -246 -285 -24 -37 -24 -39 -6 -52 51 -37 454 11 639 75
79 28 96 45 96 95 0 62 -36 224 -57 254 -9 15 -32 61 -50 102 -18 41 -44 85
-58 97 -14 12 -53 85 -89 165 -131 293 -267 619 -272 650 -5 27 2 45 35 96 42
64 49 70 68 51 16 -16 67 49 208 261 95 144 259 415 277 461 2 3 80 3 175 0
l172 -6 122 -160 c172 -226 348 -463 386 -518 28 -40 38 -47 66 -47 27 0 43
-11 93 -63 l61 -62 13 -120 c17 -168 45 -323 81 -439 63 -206 88 -314 73 -320
-9 -4 -12 -15 -7 -36 4 -23 1 -34 -11 -43 -37 -27 -29 -306 10 -334 41 -30
331 -119 499 -154 87 -17 208 -17 229 0 23 19 15 59 -23 114 -45 66 -257 265
-353 332 -76 53 -88 65 -99 103 -6 24 -19 50 -27 58 -8 8 -20 43 -28 77 -7 34
-36 164 -63 288 -28 125 -58 287 -66 360 -22 192 -18 183 -106 273 l-78 82 24
40 c13 21 25 45 25 51 0 7 -30 50 -66 95 -37 46 -87 112 -112 148 -25 36 -115
159 -200 273 -85 114 -153 209 -151 211 21 15 106 36 148 36 81 0 130 19 185
72 46 44 48 49 43 87 l-5 40 188 96 c221 112 281 159 325 256 55 124 25 198
-157 384 -107 108 -128 134 -128 160 0 26 -27 56 -204 225 -112 107 -204 199
-205 203 -1 5 17 46 39 90 41 83 130 351 214 642 30 103 55 218 71 325 13 91
46 262 74 380 28 118 51 222 51 231 0 9 14 34 31 55 18 22 45 68 62 103 35 75
41 158 18 253 -13 54 -12 69 32 340 57 351 71 479 65 618 -4 96 -8 116 -35
169 -16 34 -27 61 -24 61 3 0 55 -14 116 -30 60 -16 113 -26 117 -22 4 4 11
29 14 54 l7 47 -39 10 c-22 5 -103 27 -181 47 -128 33 -143 40 -143 59 0 33
44 178 105 340 31 83 60 169 66 193 5 23 32 103 59 177 28 74 50 144 50 155 0
10 -15 31 -34 45 -77 59 -231 98 -441 111 -87 6 -103 4 -118 -10z m149 -110
c8 -22 -41 -274 -80 -414 -20 -68 -41 -151 -47 -185 -14 -72 -23 -87 -43 -67
-17 19 -7 106 30 242 13 51 40 161 59 243 19 83 39 160 45 173 11 25 28 29 36
8z m-30 -761 c99 -26 180 -48 182 -50 2 -2 0 -24 -3 -49 -6 -35 -12 -46 -25
-46 -24 0 -423 119 -433 129 -5 5 -5 24 -2 43 l7 35 48 -8 c26 -4 128 -28 226
-54z m-208 -175 c108 -33 256 -71 327 -86 72 -14 138 -33 148 -41 33 -30 68
-118 76 -194 10 -96 -2 -263 -33 -464 -14 -88 -35 -226 -48 -307 -13 -82 -25
-148 -28 -148 -3 0 -13 13 -23 28 -30 52 -153 159 -220 192 -184 90 -419 10
-503 -173 -26 -56 -29 -72 -29 -172 0 -98 3 -116 26 -166 65 -138 200 -225
389 -248 82 -11 147 0 214 34 27 14 50 24 52 23 1 -2 -8 -48 -22 -103 -46
-189 -93 -420 -109 -534 -22 -165 -34 -207 -222 -806 -26 -82 -91 -203 -136
-252 -46 -50 -142 -101 -237 -124 -75 -19 -240 -16 -318 5 -100 27 -188 74
-233 124 -62 71 -79 142 -79 327 0 166 12 252 55 387 17 53 32 134 41 222 19
194 26 226 79 396 13 41 29 122 35 180 13 127 39 279 52 303 6 11 21 17 45 17
52 0 114 33 166 89 55 59 77 100 112 214 53 170 18 332 -94 428 l-47 41 27
141 c15 78 46 194 69 257 23 63 48 144 56 179 22 94 48 138 131 219 41 39 77
72 79 72 3 0 94 -27 202 -60z m-561 -831 c46 -28 92 -85 122 -149 68 -145 5
-402 -128 -523 -72 -64 -168 -85 -244 -53 -48 20 -111 95 -137 162 -28 74 -38
227 -20 305 42 179 180 299 325 283 27 -3 64 -14 82 -25z m695 -180 c123 -41
254 -156 306 -266 22 -49 27 -72 27 -148 0 -77 -4 -98 -27 -147 -92 -197 -308
-251 -544 -138 -152 73 -217 178 -218 350 -1 84 3 102 28 157 45 99 129 165
249 198 73 19 108 18 179 -6z m-1124 -2331 c10 -24 32 -58 48 -77 102 -122
371 -183 574 -132 104 26 178 61 227 107 l37 35 55 -53 c31 -29 118 -113 193
-187 l137 -134 -65 -22 c-74 -25 -132 -74 -160 -136 -9 -22 -20 -38 -24 -37
-4 2 -78 85 -165 186 -87 100 -160 180 -163 178 -2 -3 29 -44 69 -92 121 -141
112 -123 95 -197 -48 -208 -82 -524 -70 -654 5 -63 3 -78 -17 -120 -34 -69
-38 -165 -10 -204 20 -26 20 -29 4 -37 -100 -53 -493 -51 -755 2 -127 26 -192
53 -233 96 l-28 29 6 149 c15 331 93 761 192 1052 27 78 31 100 16 85 -5 -6
-16 -35 -25 -66 -9 -31 -22 -62 -31 -69 -35 -29 -130 -80 -141 -76 -19 7 -95
167 -101 212 l-5 39 102 49 c56 27 125 64 153 83 29 18 55 33 59 33 4 0 16
-19 26 -42z m-330 -236 c13 -31 25 -62 28 -67 2 -6 -40 -32 -93 -58 -201 -99
-303 -170 -303 -211 0 -47 68 -143 255 -356 56 -63 121 -139 145 -168 l44 -53
-3 -97 c-1 -53 -4 -104 -7 -113 -5 -18 -65 -49 -94 -49 -33 0 -32 19 4 50 19
17 38 40 41 51 3 10 8 28 11 39 3 11 1 20 -4 20 -5 0 -12 -14 -16 -31 -7 -35
-65 -99 -90 -99 -28 0 -56 60 -56 118 0 49 2 52 25 52 20 0 25 -5 25 -26 0
-14 4 -23 10 -19 6 3 10 15 10 26 0 14 7 19 26 19 14 0 23 4 19 10 -3 6 -35
10 -69 10 -69 0 -80 7 -90 55 -4 17 -45 80 -93 140 -160 205 -231 329 -240
421 -5 46 -2 59 20 93 26 39 102 102 187 156 60 38 262 145 275 145 6 0 20
-26 33 -58z m68 -129 c28 -33 35 -36 51 -26 54 36 105 64 109 61 2 -3 -9 -56
-26 -119 -49 -189 -70 -295 -98 -487 l-27 -183 -149 170 c-217 249 -292 353
-279 387 9 24 93 80 238 158 77 42 142 76 144 76 2 0 19 -17 37 -37z m1613
-212 c151 -139 225 -231 251 -313 23 -76 -35 -197 -126 -261 -25 -18 -127 -74
-227 -125 l-182 -93 -75 4 c-41 3 -86 8 -100 12 -23 6 -24 6 -5 -6 11 -7 56
-16 99 -19 55 -3 81 -9 84 -19 3 -9 0 -11 -7 -7 -7 4 -20 4 -29 0 -9 -4 -29
-6 -44 -5 -14 1 -29 -2 -33 -8 -3 -6 -30 -11 -59 -11 -33 0 -59 -6 -72 -16
-19 -16 -17 -16 34 0 16 5 22 3 22 -7 0 -18 -40 -77 -62 -91 -14 -8 -22 -6
-40 12 -50 50 -7 216 69 268 17 11 76 33 130 48 127 36 223 76 325 137 146 88
171 126 127 198 -11 18 -90 101 -175 184 -168 163 -166 160 -95 197 61 33 73
28 190 -79z m-384 -23 c66 -77 68 -78 115 -78 26 0 62 5 79 11 33 12 33 11
133 -87 55 -55 111 -118 125 -142 24 -40 24 -44 9 -67 -36 -55 -255 -177 -387
-215 -146 -42 -174 -52 -200 -71 -15 -10 -30 -19 -35 -19 -11 0 4 346 20 450
9 52 24 139 36 194 11 54 20 100 20 103 0 13 23 -9 85 -79z m-1489 -1867 c34
-16 65 -34 68 -40 4 -6 -6 -30 -22 -53 -57 -83 -64 -105 -51 -146 16 -50 192
-463 273 -641 36 -80 66 -150 66 -156 0 -21 -35 -44 -95 -65 -32 -11 -62 -20
-66 -20 -38 0 -400 877 -385 933 10 38 122 217 136 217 8 0 43 -13 76 -29z
m1782 -55 c81 -85 85 -96 102 -266 6 -63 24 -176 41 -250 31 -139 99 -459 99
-466 0 -4 -129 -44 -145 -44 -8 0 -20 29 -30 73 -10 39 -33 122 -51 182 -53
179 -75 290 -98 499 l-14 129 -62 62 -62 62 54 30 c30 17 60 38 67 47 7 9 17
16 21 16 4 0 39 -34 78 -74z m-1378 -1062 c17 -36 33 -78 36 -94 6 -25 3 -29
-42 -44 -62 -21 -96 -20 -143 4 -35 17 -101 84 -101 101 0 4 30 16 68 28 37
11 83 31 102 45 19 14 38 25 42 26 4 0 21 -30 38 -66z m1661 18 c18 -53 10
-92 -24 -129 -30 -33 -65 -28 -135 17 -57 36 -62 43 -62 75 0 29 4 35 23 36
12 0 54 11 92 24 39 12 75 23 81 24 5 1 17 -20 25 -47z"/>
<path d="M4018 5895 c-64 -128 -120 -319 -122 -416 -1 -76 12 -99 57 -99 42 0
97 61 146 163 47 97 143 348 136 355 -2 3 -9 -8 -15 -24 -127 -333 -188 -448
-250 -474 -24 -10 -33 -10 -46 1 -14 11 -16 28 -11 99 6 94 42 217 102 347 40
86 42 126 3 48z"/>
</g>
</svg>
